<svg width="20" height="21" viewBox="0 0 20 21" fill="none" xmlns="http://www.w3.org/2000/svg">
<path d="M14.55 11.4583C15.3 11.4583 15.96 11.0312 16.3 10.3854L19.88 3.625C20.25 2.9375 19.77 2.08333 19.01 2.08333H4.21L3.27 0H0V2.08333H2L5.6 9.98958L4.25 12.5312C3.52 13.9271 4.48 15.625 6 15.625H18V13.5417H6L7.1 11.4583H14.55ZM5.16 4.16667H17.31L14.55 9.375H7.53L5.16 4.16667ZM6 16.6667C4.9 16.6667 4.01 17.6042 4.01 18.75C4.01 19.8958 4.9 20.8333 6 20.8333C7.1 20.8333 8 19.8958 8 18.75C8 17.6042 7.1 16.6667 6 16.6667ZM16 16.6667C14.9 16.6667 14.01 17.6042 14.01 18.75C14.01 19.8958 14.9 20.8333 16 20.8333C17.1 20.8333 18 19.8958 18 18.75C18 17.6042 17.1 16.6667 16 16.6667Z" fill="white"/>
</svg>
