<svg width="154" height="62" viewBox="0 0 154 62" fill="none" xmlns="http://www.w3.org/2000/svg">
<path d="M37.6365 0.87C36.3465 2.22 35.5065 3.57 34.5465 6.39L30.2865 19.02L31.3065 21.63H28.9365L23.0565 6.39C23.0565 6.39 22.8165 5.85 22.6965 5.58L18.1665 19.02L19.1565 21.63H16.8165L10.9365 6.39C9.70652 3.42 8.92652 2.22 7.78652 0.87V0.629999H12.4065V0.87C11.6265 1.65 11.8665 2.7 12.7065 4.89L18.0465 18.69L22.2165 6.39C22.3365 6 22.4565 5.61 22.5765 5.25C21.6165 3.09 20.8965 2.04 19.9065 0.87V0.629999H24.5265V0.87C23.7465 1.65 23.9865 2.7 24.8265 4.89L30.1665 18.69L34.3365 6.39C35.2665 3.66 35.3565 2.22 34.0665 0.87V0.629999H37.6365V0.87Z" fill="#0E0E0E"/>
<path d="M48.5966 11.94C50.3066 12.39 51.8666 14.13 51.6266 16.86C51.4466 18.99 49.5566 21.81 45.2966 21.81C41.1566 21.81 37.1666 19.77 37.0466 14.82C36.8966 9.63 41.6066 7.38 44.9066 7.2C47.4566 7.08 50.9666 8.31 51.3866 11.94C51.1166 11.94 49.2566 11.94 49.2566 11.94H48.5966ZM43.5566 7.56C41.5166 7.95 40.1966 9.66 39.6566 11.7H49.2266C48.8366 9.09 46.4966 6.99 43.5566 7.56ZM51.3566 16.92C51.7166 13.8 49.6466 11.94 47.3666 11.94H39.5966C39.2066 13.53 39.2966 15.3 39.8066 16.74C40.9166 19.89 43.1666 21.27 46.2266 21.15C48.8066 21.03 51.0566 19.26 51.3566 16.92Z" fill="#0E0E0E"/>
<path d="M56.7751 19.65C56.7751 20.7 56.9851 21.15 57.4351 21.42C57.4351 21.48 57.4351 21.63 57.4351 21.63H53.7451C53.7451 21.63 53.7451 21.48 53.7451 21.42C54.1951 21.15 54.4051 20.7 54.4051 19.65V2.31C54.4051 1.26 54.3151 0.96 53.7451 0.87C53.7451 0.81 53.7451 0.629999 53.7451 0.629999L56.5651 0H56.7751V19.65Z" fill="#0E0E0E"/>
<path d="M62.5759 19.65C62.5759 20.7 62.7859 21.15 63.2359 21.42C63.2359 21.48 63.2359 21.63 63.2359 21.63H59.5459C59.5459 21.63 59.5459 21.48 59.5459 21.42C59.9959 21.15 60.2059 20.7 60.2059 19.65V2.31C60.2059 1.26 60.1159 0.96 59.5459 0.87C59.5459 0.81 59.5459 0.629999 59.5459 0.629999L62.3659 0H62.5759V19.65Z" fill="#0E0E0E"/>
<path d="M68.1067 16.74C69.2167 19.89 71.7667 21.57 74.7967 21.27C77.7667 20.97 79.3867 18.33 79.8667 17.49L80.0467 17.58C79.1167 19.26 77.3467 21.6 73.7767 21.81C69.6367 22.02 65.4967 19.77 65.3767 14.82C65.2267 9.63 69.9367 7.2 73.2367 7.2C74.9467 7.2 77.3467 7.98 78.9067 8.79L78.4567 11.28H78.2767C77.5567 9.48 74.7067 6.9 71.8867 7.56C68.1967 8.4 66.8467 13.14 68.1067 16.74Z" fill="#0E0E0E"/>
<path d="M89.9708 7.2C93.9908 7.2 97.4708 9.72 97.4708 13.86C97.4708 18.66 93.3608 21.81 89.3408 21.81C85.2908 21.81 81.8408 19.35 81.8408 15.15C81.8408 10.2 85.9508 7.2 89.9708 7.2ZM91.6508 21.27C95.0708 20.28 96.0008 16.53 94.9508 12.9C93.9008 9.3 91.0808 6.75 87.6608 7.74C84.2408 8.73 83.3108 12.48 84.3608 16.11C85.4108 19.71 88.2308 22.29 91.6508 21.27Z" fill="#0E0E0E"/>
<path d="M121.495 19.65C121.615 20.73 121.885 21.15 122.335 21.42C122.335 21.48 122.335 21.63 122.335 21.63H118.645C118.645 21.63 118.645 21.48 118.645 21.42C119.095 21.15 119.245 20.64 119.155 19.65C119.035 18.66 118.615 13.59 118.465 12.03C118.225 9.78 117.355 7.23 115.015 7.74C112.255 8.34 111.895 12.99 111.865 16.14V19.65C111.865 20.7 112.075 21.15 112.525 21.42C112.525 21.48 112.525 21.63 112.525 21.63H108.835C108.835 21.63 108.835 21.48 108.835 21.42C109.285 21.15 109.495 20.7 109.495 19.65V12.03C109.495 9.75 108.445 7.29 106.105 7.74C102.745 8.37 102.595 14.64 102.595 17.19V19.65C102.595 20.7 102.835 21.15 103.285 21.42C103.285 21.48 103.285 21.63 103.285 21.63H99.5654C99.5654 21.63 99.5654 21.48 99.5654 21.42C100.015 21.15 100.255 20.7 100.255 19.65V9.51C100.255 8.46 100.165 8.16 99.5654 8.07C99.5654 8.01 99.5654 7.86 99.5654 7.86L102.385 7.2H102.595V13.86C102.925 10.68 103.825 7.2 107.425 7.2C109.735 7.2 111.715 9.18 111.835 12.48L111.865 12.81C112.225 9.9 113.335 7.2 116.365 7.2C118.735 7.2 120.415 8.97 120.775 12.48C121.105 15.39 121.375 18.54 121.495 19.65Z" fill="#0E0E0E"/>
<path d="M135.433 11.94C137.143 12.39 138.703 14.13 138.463 16.86C138.283 18.99 136.393 21.81 132.133 21.81C127.993 21.81 124.003 19.77 123.883 14.82C123.733 9.63 128.443 7.38 131.743 7.2C134.293 7.08 137.803 8.31 138.223 11.94C137.953 11.94 136.093 11.94 136.093 11.94H135.433ZM130.393 7.56C128.353 7.95 127.033 9.66 126.493 11.7H136.063C135.673 9.09 133.333 6.99 130.393 7.56ZM138.193 16.92C138.553 13.8 136.483 11.94 134.203 11.94H126.433C126.043 13.53 126.133 15.3 126.643 16.74C127.753 19.89 130.003 21.27 133.063 21.15C135.643 21.03 137.893 19.26 138.193 16.92Z" fill="#0E0E0E"/>
<path d="M142.501 16.14H142.291L140.581 0.629999H144.181L142.501 16.14ZM142.381 18.54C143.281 18.54 144.031 19.26 144.031 20.16C144.031 21.06 143.281 21.81 142.381 21.81C141.481 21.81 140.761 21.06 140.761 20.16C140.761 19.26 141.481 18.54 142.381 18.54Z" fill="#0E0E0E"/>
<path d="M12.99 54.88L13.17 55L12.51 58.63H0C0 58.63 0 58.48 0 58.42C0.48 58.15 0.69 57.7 0.69 56.65V39.64C0.69 38.56 0.48 38.14 0 37.87C0 37.81 0 37.63 0 37.63H3.72C3.72 37.63 3.72 37.81 3.72 37.87C3.27 38.14 3.06 38.56 3.06 39.64V58.42H5.79C9.12 58.42 11.58 56.71 12.99 54.88Z" fill="#0E0E0E"/>
<path d="M26.2577 48.94C27.9677 49.39 29.5277 51.13 29.2877 53.86C29.1077 55.99 27.2177 58.81 22.9577 58.81C18.8177 58.81 14.8277 56.77 14.7077 51.82C14.5577 46.63 19.2677 44.38 22.5677 44.2C25.1177 44.08 28.6277 45.31 29.0477 48.94C28.7777 48.94 26.9177 48.94 26.9177 48.94H26.2577ZM21.2177 44.56C19.1777 44.95 17.8577 46.66 17.3177 48.7H26.8877C26.4977 46.09 24.1577 43.99 21.2177 44.56ZM29.0177 53.92C29.3777 50.8 27.3077 48.94 25.0277 48.94H17.2577C16.8677 50.53 16.9577 52.3 17.4677 53.74C18.5777 56.89 20.8277 58.27 23.8877 58.15C26.4677 58.03 28.7177 56.26 29.0177 53.92Z" fill="#0E0E0E"/>
<path d="M42.0262 53.32L42.1763 53.38C41.6063 56.2 40.3463 58.81 37.1963 58.81C34.5263 58.81 32.8763 57.07 32.8763 53.53V44.44H31.1063V44.2C33.6562 44.2 33.8662 41.53 33.8662 40.09H36.2363C36.2363 42.4 33.9562 44.11 32.1562 44.2H38.7863V44.44H35.2463V53.98C35.2463 56.59 35.9663 58.6 38.5163 58.27C40.4963 58 41.4862 55.63 42.0262 53.32Z" fill="#0E0E0E"/>
<path d="M44.4234 37.3C45.2934 37.3 46.0434 38.05 46.0434 38.95C46.0434 40.57 45.0234 42.01 43.3434 43.36L43.1934 43.21C44.3634 42.19 45.1434 41.29 45.5034 40.12C45.2034 40.39 44.8434 40.57 44.4234 40.57C43.5234 40.57 42.7734 39.82 42.7734 38.95C42.7734 38.05 43.5234 37.3 44.4234 37.3Z" fill="#0E0E0E"/>
<path d="M54.547 44.2C56.107 44.2 58.147 45.19 59.347 46.12L58.747 48.88H58.597C57.667 46.33 55.747 44.47 54.037 44.47C51.997 44.47 50.857 45.61 50.707 46.84C50.287 50.86 60.397 49.78 60.067 54.67C59.887 57.04 57.667 58.81 54.307 58.81C51.877 58.81 50.077 58 48.457 56.8L49.087 53.8H49.237C50.257 55.9 52.507 58.39 55.177 58.39C57.337 58.39 58.957 57.28 59.137 55.99C59.707 52.06 49.237 53.8 49.957 47.92C50.197 45.97 51.277 44.2 54.547 44.2Z" fill="#0E0E0E"/>
<path d="M69.3813 37.63H74.0613C74.0613 37.63 74.0613 37.81 74.0613 37.87C73.5813 38.14 73.3713 38.56 73.3713 39.64V53.77C73.3713 58.96 69.7713 60.67 66.8013 61.69L66.7113 61.42C69.3813 60.22 71.0013 58.72 71.0013 53.77V39.94C71.0013 38.74 70.4613 37.96 69.3813 37.87C69.3813 37.81 69.3813 37.63 69.3813 37.63Z" fill="#0E0E0E"/>
<path d="M84.3019 44.2C88.3219 44.2 91.8019 46.72 91.8019 50.86C91.8019 55.66 87.6919 58.81 83.6719 58.81C79.6219 58.81 76.1719 56.35 76.1719 52.15C76.1719 47.2 80.2819 44.2 84.3019 44.2ZM85.9819 58.27C89.4019 57.28 90.3319 53.53 89.2819 49.9C88.2319 46.3 85.4119 43.75 81.9919 44.74C78.5719 45.73 77.6419 49.48 78.6919 53.11C79.7419 56.71 82.5619 59.29 85.9819 58.27Z" fill="#0E0E0E"/>
<path d="M96.3405 56.65C96.3405 57.7 96.5505 58.15 97.0305 58.42C97.0305 58.48 97.0305 58.63 97.0305 58.63H93.3105C93.3105 58.63 93.3105 58.48 93.3105 58.42C93.7605 58.15 93.9706 57.7 93.9706 56.65V46.51C93.9706 45.46 93.8805 45.16 93.3105 45.07C93.3105 45.01 93.3105 44.86 93.3105 44.86L96.1305 44.2H96.3405V56.65ZM95.0805 41.77C94.3005 41.77 93.6705 41.14 93.6705 40.36C93.6705 39.58 94.3005 38.95 95.0805 38.95C95.8605 38.95 96.4905 39.58 96.4905 40.36C96.4905 41.14 95.8605 41.77 95.0805 41.77Z" fill="#0E0E0E"/>
<path d="M113.121 56.65C113.241 57.73 113.511 58.15 113.961 58.42C113.961 58.48 113.961 58.63 113.961 58.63H110.241C110.241 58.63 110.241 58.48 110.241 58.42C110.721 58.15 110.841 57.64 110.751 56.65C110.661 55.66 110.211 50.59 110.061 49.03C109.851 46.78 108.741 44.23 106.161 44.74C102.801 45.4 102.171 51.67 102.171 54.19V56.65C102.171 57.7 102.381 58.15 102.861 58.42C102.861 58.48 102.861 58.63 102.861 58.63H99.1406C99.1406 58.63 99.1406 58.48 99.1406 58.42C99.5906 58.15 99.8006 57.7 99.8006 56.65V46.51C99.8006 45.46 99.7106 45.16 99.1406 45.07C99.1406 45.01 99.1406 44.86 99.1406 44.86L101.961 44.2H102.171V51.64C102.561 48.28 103.581 44.2 107.481 44.2C109.941 44.2 112.041 45.88 112.401 49.48C112.701 52.39 113.001 55.54 113.121 56.65Z" fill="#0E0E0E"/>
<path d="M136.316 37.63H140.036C140.036 37.63 140.036 37.81 140.036 37.87C139.076 38.38 138.776 39.94 138.776 41.23V51.58C138.776 55.75 135.806 58.81 131.576 58.81C127.106 58.81 123.356 56.32 123.356 50.86V39.64C123.356 38.56 123.146 38.14 122.666 37.87C122.666 37.81 122.666 37.63 122.666 37.63H126.386C126.386 37.63 126.386 37.81 126.386 37.87C125.936 38.14 125.726 38.56 125.726 39.64V50.86C125.726 55.81 128.276 58.81 132.626 58.45C136.316 58.15 138.566 54.94 138.566 51.58V41.56C138.566 39.91 137.786 38.08 136.316 37.87C136.316 37.81 136.316 37.63 136.316 37.63Z" fill="#0E0E0E"/>
<path d="M147.623 44.2C149.183 44.2 151.223 45.19 152.423 46.12L151.823 48.88H151.673C150.743 46.33 148.823 44.47 147.113 44.47C145.073 44.47 143.933 45.61 143.783 46.84C143.363 50.86 153.473 49.78 153.143 54.67C152.963 57.04 150.743 58.81 147.383 58.81C144.953 58.81 143.153 58 141.533 56.8L142.163 53.8H142.313C143.333 55.9 145.583 58.39 148.253 58.39C150.413 58.39 152.033 57.28 152.213 55.99C152.783 52.06 142.313 53.8 143.033 47.92C143.273 45.97 144.353 44.2 147.623 44.2Z" fill="#0E0E0E"/>
</svg>
